<?xml version="1.0" encoding="UTF-8" standalone="no"?>
<!DOCTYPE svg PUBLIC "-//W3C//DTD SVG 1.0//EN" "http://www.w3.org/TR/2001/REC-SVG-20010904/DTD/svg10.dtd">
<!-- Generiert durch Microsoft Visio 11.0, SVG Export, v1.0 RendererChain.svg Page-1 -->
<svg xmlns="http://www.w3.org/2000/svg" xmlns:v="http://schemas.microsoft.com/visio/2003/SVGExtensions/" width="11.6929in"
		height="8.26772in" viewBox="0 0 841.89 595.276" xml:space="preserve" color-interpolation-filters="sRGB" class="st18">
	<v:documentProperties v:langID="1031" v:metric="true"/>
	<v:reviewers>
		<v:reviewer v:name="Daniel" v:initials="D" color="#ff0000" v:reviewerId="1" v:currentIndex="2"/>
	</v:reviewers>

	<style type="text/css">
	<![CDATA[
		.st1 {fill:#ff00ff;fill-opacity:0}
		.st2 {stroke:#000000;stroke-linecap:round;stroke-linejoin:round;stroke-opacity:0;stroke-width:0.72}
		.st3 {fill:url(#grad30-8);stroke:#ffffff;stroke-linecap:round;stroke-linejoin:round;stroke-width:0.72}
		.st4 {fill:url(#grad32-12)}
		.st5 {stroke:#000000;stroke-linecap:round;stroke-linejoin:round;stroke-width:0.72}
		.st6 {stroke:#000000;stroke-linecap:round;stroke-linejoin:round;stroke-width:1.5}
		.st7 {fill:#000000;font-family:Arial;font-size:1.00001em}
		.st8 {fill:#bfbfbf;stroke:#000000;stroke-linecap:round;stroke-linejoin:round;stroke-width:0.24}
		.st9 {fill:#1f477d;stroke:#000000;stroke-linecap:round;stroke-linejoin:round;stroke-width:0.24}
		.st10 {fill:none;stroke:none;stroke-linecap:round;stroke-linejoin:round;stroke-width:0.72}
		.st11 {fill:#ffffff;font-family:Arial;font-size:1.00001em}
		.st12 {marker-end:url(#mrkr4-51);stroke:#000000;stroke-linecap:round;stroke-linejoin:round;stroke-width:0.239976}
		.st13 {fill:#000000;fill-opacity:1;stroke:#000000;stroke-opacity:1;stroke-width:0.086948582161584}
		.st14 {fill:url(#grad28-76);stroke:#000000;stroke-linecap:round;stroke-linejoin:round;stroke-width:0.72}
		.st15 {fill:#f2f2f2;stroke:#000000;stroke-linecap:round;stroke-linejoin:round;stroke-width:0.24}
		.st16 {fill:#000000;font-family:Arial;font-size:0.666664em;font-weight:bold}
		.st17 {fill:#d9d9d9;stroke:#000000;stroke-linecap:round;stroke-linejoin:round;stroke-width:0.24}
		.st18 {fill:none;fill-rule:evenodd;font-size:12;overflow:visible;stroke-linecap:square;stroke-miterlimit:3}
	]]>
	</style>

	<defs id="Patterns_And_Gradients">
		<linearGradient id="grad30-8" v:fillPattern="30" v:foreground="#ffffff" v:background="#dfdfdf" x1="0" y1="1" x2="0" y2="0">
			<stop offset="0" style="stop-color:#ffffff;stop-opacity:1"/>
			<stop offset="1" style="stop-color:#dfdfdf;stop-opacity:1"/>
		</linearGradient>
		<pattern id="grad32-12" v:fillPattern="32" v:foreground="#ffffff" v:background="#c0c0c0" x="0" y="0" width="1" height="1"
				patternContentUnits="objectBoundingBox">
			<path d="M 0 1 L 0 0 L 1 0 z" style="fill:url(#grad27-13)"/>
			<path d="M 0 1 L 1 1 L 1 0 z" style="fill:url(#grad28-14)"/>
		</pattern>
		<linearGradient id="grad27-13" v:fillPattern="32" v:foreground="#ffffff" v:background="#c0c0c0" x1="1" y1="0" x2="0" y2="0">
			<stop offset="0" style="stop-color:#ffffff;stop-opacity:1"/>
			<stop offset="1" style="stop-color:#c0c0c0;stop-opacity:1"/>
		</linearGradient>
		<linearGradient id="grad28-14" v:fillPattern="32" v:foreground="#ffffff" v:background="#c0c0c0" x1="0" y1="0" x2="0" y2="1">
			<stop offset="0" style="stop-color:#ffffff;stop-opacity:1"/>
			<stop offset="1" style="stop-color:#c0c0c0;stop-opacity:1"/>
		</linearGradient>
		<linearGradient id="grad28-76" v:fillPattern="28" v:foreground="#c0c0c0" v:background="#ffffff" x1="0" y1="0" x2="0" y2="1">
			<stop offset="0" style="stop-color:#c0c0c0;stop-opacity:1"/>
			<stop offset="1" style="stop-color:#ffffff;stop-opacity:1"/>
		</linearGradient>
	</defs>
	<defs id="Markers">
		<g id="lend4">
			<path d="M 2 1 L -0 0 L 2 -1 L 2 1 " style="stroke:none"/>
		</g>
		<marker id="mrkr4-51" class="st13" v:arrowType="4" v:arrowSize="2" v:setback="23.0021" refX="-23.002100210021"
				orient="auto" markerUnits="strokeWidth">
			<use xlink:href="#lend4" transform="scale(-11.501050105011,-11.501050105011) "/>
		</marker>
	</defs>
	<g v:mID="0" v:index="1" v:groupContext="foregroundPage">
		<title>Zeichenblatt-1</title>
		<v:pageProperties v:drawingScale="0.0393701" v:pageScale="0.0393701" v:drawingUnits="24" v:shadowOffsetX="8.50394"
				v:shadowOffsetY="-8.50394"/>
		<v:layer v:name="Flussdiagramm" v:index="0"/>
		<v:layer v:name="Verbinder" v:index="1"/>
		<g id="group11-1" transform="translate(56.6929,-326.335)" v:mID="11" v:groupContext="group">
			<v:custProps>
				<v:cp v:nameU="ShapeClass" v:lbl="ShapeClass" v:type="0" v:invis="true" v:ask="false" v:langID="1031"
						v:val="VT4(Konnektivität)"/>
				<v:cp v:nameU="ShapeType" v:lbl="ShapeType" v:type="0" v:invis="true" v:ask="false" v:langID="1031"
						v:val="VT4(Konzeptionell)"/>
				<v:cp v:nameU="SubShapeType" v:lbl="SubShapeType" v:type="0" v:invis="true" v:ask="false" v:langID="1031"
						v:val="VT4(Daten)"/>
			</v:custProps>
			<v:userDefs>
				<v:ud v:nameU="visLegendShape" v:val="VT0(2):26"/>
				<v:ud v:nameU="HasText" v:val="VT0(1):5"/>
				<v:ud v:nameU="SolSH" v:val="VT14({BF0433D9-CD73-4EB5-8390-8653BE590246}):41"/>
				<v:ud v:nameU="ShapeClass" v:val="VT0(4):26"/>
				<v:ud v:nameU="ShapeType" v:val="VT0(7):26"/>
				<v:ud v:nameU="SubShapeType" v:val="VT0(15):26"/>
				<v:ud v:nameU="visVersion" v:prompt="" v:val="VT0(12):26"/>
			</v:userDefs>
			<title>Datenbank für das Konfigurationsmanagement.11</title>
			<desc>DataBackend</desc>
			<g id="shape12-2" v:mID="12" v:groupContext="shape" transform="translate(-7.99361E-015,0.000575512)">
				<title>Tabelle.12</title>
				<path d="M61.1 551.82 A30.5497 17.7506 0.18 0 1 60.36 555.75 A30.5497 17.7506 -179.82 0 0 61.1 551.82 L61.1 551.82
							 Z M61.1 551.82 A30.5497 17.7506 -179.82 0 0 0 551.82 L0 577.53 A30.5499 17.7507 -179.82 0 0 61.1 577.53
							 L61.21 577.53 L61.21 551.82 L61.1 551.82 L61.1 551.82 Z" class="st1"/>
				<path d="M61.1 551.82 A30.5497 17.7506 0.18 0 1 60.36 555.75 A30.5497 17.7506 -179.82 0 0 61.1 551.82M61.1 551.82
							 A30.5497 17.7506 -179.82 0 0 0 551.82 L0 577.53 A30.5499 17.7507 -179.82 0 0 61.1 577.53 L61.21 577.53
							 L61.21 551.82 L61.1 551.82" class="st2"/>
			</g>
			<g id="shape13-5" v:mID="13" v:groupContext="shape" transform="translate(-3.11751E-013,-25.7071)">
				<title>Tabelle.13</title>
				<ellipse cx="30.5496" cy="577.525" rx="30.5496" ry="17.7505" class="st3"/>
			</g>
			<g id="shape14-9" v:mID="14" v:groupContext="shape">
				<title>Tabelle.14</title>
				<path d="M0 551.82 L0 577.43 L0 577.53 A30.5499 17.7507 -179.82 0 0 61.1 577.53 L61.21 577.53 L61.21 551.82 L61.1
							 551.82 A30.5497 17.7506 0.18 0 1 0 551.82 L0 551.82 Z" class="st4"/>
				<path d="M0 551.82 L0 577.43 L0 577.53 A30.5499 17.7507 -179.82 0 0 61.1 577.53 L61.21 577.53 L61.21 551.82 L61.1
							 551.82 A30.5497 17.7506 0.18 0 1 0 551.82" class="st5"/>
			</g>
			<g id="shape15-16" v:mID="15" v:groupContext="shape" transform="translate(0,0.000497082)">
				<title>Tabelle.15</title>
				<path d="M61.1 551.82 A30.5497 17.7506 -179.82 1 0 0 551.82 L0 577.53 A30.5499 17.7507 -179.82 0 0 61.1 577.53 L61.21
							 577.53 L61.21 551.82 L61.1 551.82" class="st6"/>
			</g>
			<g id="shape11-19" v:mID="11" v:groupContext="groupContent">
				<v:textBlock v:margins="rect(4,4,4,4)" v:tabSpace="42.5197"/>
				<v:textRect cx="28.3465" cy="609.8" width="83.39" height="22.4037"/>
				<text x="-7.68" y="613.4" class="st7" v:langID="1031"><v:paragraph v:horizAlign="1"/><v:tabList/>DataBackend</text>			</g>
		</g>
		<g id="shape16-21" v:mID="16" v:groupContext="shape" v:layerMember="0" transform="translate(184.252,-288.682)">
			<title>Prozess</title>
			<v:custProps>
				<v:cp v:nameU="Cost" v:lbl="Kosten" v:type="7" v:format="@" v:langID="1031"/>
				<v:cp v:nameU="Duration" v:lbl="Dauer" v:type="2" v:langID="1031"/>
				<v:cp v:nameU="Resources" v:lbl="Ressourcen" v:langID="1031"/>
			</v:custProps>
			<v:userDefs>
				<v:ud v:nameU="visVersion" v:val="VT0(12):26"/>
			</v:userDefs>
			<rect x="0" y="458.761" width="42.5197" height="136.515" class="st8"/>
		</g>
		<g id="shape18-23" v:mID="18" v:groupContext="shape" v:layerMember="0" transform="translate(280.63,-288.682)">
			<title>Prozess.18</title>
			<v:custProps>
				<v:cp v:nameU="Cost" v:lbl="Kosten" v:type="7" v:format="@" v:langID="1031"/>
				<v:cp v:nameU="Duration" v:lbl="Dauer" v:type="2" v:langID="1031"/>
				<v:cp v:nameU="Resources" v:lbl="Ressourcen" v:langID="1031"/>
			</v:custProps>
			<v:userDefs>
				<v:ud v:nameU="visVersion" v:val="VT0(12):26"/>
			</v:userDefs>
			<rect x="0" y="458.761" width="42.5197" height="136.515" class="st8"/>
		</g>
		<g id="shape19-25" v:mID="19" v:groupContext="shape" v:layerMember="0" transform="translate(354.331,-288.682)">
			<title>Prozess.19</title>
			<v:custProps>
				<v:cp v:nameU="Cost" v:lbl="Kosten" v:type="7" v:format="@" v:langID="1031"/>
				<v:cp v:nameU="Duration" v:lbl="Dauer" v:type="2" v:langID="1031"/>
				<v:cp v:nameU="Resources" v:lbl="Ressourcen" v:langID="1031"/>
			</v:custProps>
			<v:userDefs>
				<v:ud v:nameU="visVersion" v:val="VT0(12):26"/>
			</v:userDefs>
			<rect x="0" y="458.761" width="42.5197" height="136.515" class="st9"/>
		</g>
		<g id="shape20-27" v:mID="20" v:groupContext="shape" v:layerMember="0" transform="translate(426.614,-288.682)">
			<title>Prozess.20</title>
			<v:custProps>
				<v:cp v:nameU="Cost" v:lbl="Kosten" v:type="7" v:format="@" v:langID="1031"/>
				<v:cp v:nameU="Duration" v:lbl="Dauer" v:type="2" v:langID="1031"/>
				<v:cp v:nameU="Resources" v:lbl="Ressourcen" v:langID="1031"/>
			</v:custProps>
			<v:userDefs>
				<v:ud v:nameU="visVersion" v:val="VT0(12):26"/>
			</v:userDefs>
			<rect x="0" y="458.761" width="42.5197" height="136.515" class="st8"/>
		</g>
		<g id="shape22-29" v:mID="22" v:groupContext="shape" v:layerMember="0" transform="translate(524.409,-288.682)">
			<title>Prozess.22</title>
			<v:custProps>
				<v:cp v:nameU="Cost" v:lbl="Kosten" v:type="7" v:format="@" v:langID="1031"/>
				<v:cp v:nameU="Duration" v:lbl="Dauer" v:type="2" v:langID="1031"/>
				<v:cp v:nameU="Resources" v:lbl="Ressourcen" v:langID="1031"/>
			</v:custProps>
			<v:userDefs>
				<v:ud v:nameU="visVersion" v:val="VT0(12):26"/>
			</v:userDefs>
			<rect x="0" y="458.761" width="42.5197" height="136.515" class="st8"/>
		</g>
		<g id="shape1-31" v:mID="1" v:groupContext="shape" transform="translate(-383.764,288.336) rotate(-90)">
			<title>Tabelle.1</title>
			<desc>Renderer 1</desc>
			<v:textBlock v:margins="rect(2,2,2,2)" v:tabSpace="42.5197"/>
			<v:textRect cx="50" cy="589.276" width="100.01" height="12"/>
			<rect x="0" y="583.276" width="100" height="12" class="st10"/>
			<text x="19.98" y="592.88" class="st7" v:langID="1031"><v:paragraph v:horizAlign="1"/><v:tabList/>Renderer 1</text>		</g>
		<g id="shape2-34" v:mID="2" v:groupContext="shape" transform="translate(-287.386,288.336) rotate(-90)">
			<title>Tabelle.2</title>
			<desc>Renderer 99</desc>
			<v:textBlock v:margins="rect(2,2,2,2)" v:tabSpace="42.5197"/>
			<v:textRect cx="50" cy="589.276" width="100.01" height="12"/>
			<rect x="0" y="583.276" width="100" height="12" class="st10"/>
			<text x="16.65" y="592.88" class="st7" v:langID="1031"><v:paragraph v:horizAlign="1"/><v:tabList/>Renderer 99</text>		</g>
		<g id="shape3-37" v:mID="3" v:groupContext="shape" transform="translate(-141.402,288.336) rotate(-90)">
			<title>Tabelle.3</title>
			<desc>Renderer 101</desc>
			<v:textBlock v:margins="rect(2,2,2,2)" v:tabSpace="42.5197"/>
			<v:textRect cx="50" cy="589.276" width="100.01" height="12"/>
			<rect x="0" y="583.276" width="100" height="12" class="st10"/>
			<text x="13.31" y="592.88" class="st7" v:langID="1031"><v:paragraph v:horizAlign="1"/><v:tabList/>Renderer 101</text>		</g>
		<g id="shape4-40" v:mID="4" v:groupContext="shape" transform="translate(-43.6063,288.336) rotate(-90)">
			<title>Tabelle.4</title>
			<desc>Renderer n</desc>
			<v:textBlock v:margins="rect(2,2,2,2)" v:tabSpace="42.5197"/>
			<v:textRect cx="50" cy="589.276" width="100.01" height="12"/>
			<rect x="0" y="583.276" width="100" height="12" class="st10"/>
			<text x="19.98" y="592.88" class="st7" v:langID="1031"><v:paragraph v:horizAlign="1"/><v:tabList/>Renderer n</text>		</g>
		<g id="shape5-43" v:mID="5" v:groupContext="shape" transform="translate(-213.685,288.336) rotate(-90)">
			<title>Tabelle.5</title>
			<desc>Renderer 100</desc>
			<v:textBlock v:margins="rect(2,2,2,2)" v:tabSpace="42.5197"/>
			<v:textRect cx="50" cy="589.276" width="100.01" height="12"/>
			<rect x="0" y="583.276" width="100" height="12" class="st10"/>
			<text x="13.31" y="592.88" class="st11" v:langID="1031"><v:paragraph v:horizAlign="1"/><v:tabList/>Renderer 100</text>		</g>
		<g id="shape6-46" v:mID="6" v:groupContext="shape" v:layerMember="1" transform="translate(117.902,-349.853)">
			<title>Dynamischer Verbinder</title>
			<v:userDefs>
				<v:ud v:nameU="visVersion" v:val="VT0(12):26"/>
			</v:userDefs>
			<path d="M0 588.19 L76.09 588.19" class="st12"/>
		</g>
		<g id="shape7-52" v:mID="7" v:groupContext="shape" v:layerMember="1" transform="translate(226.772,-349.853)">
			<title>Dynamischer Verbinder.7</title>
			<v:userDefs>
				<v:ud v:nameU="visVersion" v:val="VT0(12):26"/>
			</v:userDefs>
			<path d="M0 588.19 L63.6 588.19" class="st12"/>
		</g>
		<g id="shape8-57" v:mID="8" v:groupContext="shape" v:layerMember="1" transform="translate(323.15,-349.853)">
			<title>Dynamischer Verbinder.8</title>
			<v:userDefs>
				<v:ud v:nameU="visVersion" v:val="VT0(12):26"/>
			</v:userDefs>
			<path d="M0 588.19 L40.92 588.19" class="st12"/>
		</g>
		<g id="shape9-62" v:mID="9" v:groupContext="shape" v:layerMember="1" transform="translate(396.85,-349.853)">
			<title>Dynamischer Verbinder.9</title>
			<v:userDefs>
				<v:ud v:nameU="visVersion" v:val="VT0(12):26"/>
			</v:userDefs>
			<path d="M0 588.19 L39.5 588.19" class="st12"/>
		</g>
		<g id="shape10-67" v:mID="10" v:groupContext="shape" v:layerMember="1" transform="translate(469.134,-349.853)">
			<title>Dynamischer Verbinder.10</title>
			<v:userDefs>
				<v:ud v:nameU="visVersion" v:val="VT0(12):26"/>
			</v:userDefs>
			<path d="M0 588.19 L65.02 588.19" class="st12"/>
		</g>
		<g id="group17-72" transform="translate(162.992,-235.276)" v:mID="17" v:groupContext="group">
			<v:userDefs>
				<v:ud v:nameU="Scale" v:val="VT0(1):26"/>
				<v:ud v:nameU="AntiScale" v:val="VT0(1):26"/>
				<v:ud v:nameU="visVersion" v:val="VT0(12):26"/>
			</v:userDefs>
			<title>Rand klein</title>
			<g id="shape21-73" v:mID="21" v:groupContext="shape">
				<title>Tabelle.21</title>
				<path d="M0 385.24 L0 572.87 A22.4037 22.4037 -180 0 0 22.4 595.28 L402.79 595.28 A22.4037 22.4037 -180 0 0 425.2
							 572.87 L425.2 385.24 L0 385.24" class="st5"/>
			</g>
			<g id="shape23-78" v:mID="23" v:groupContext="shape" transform="translate(0,-210.037)">
				<title>Tabelle.23</title>
				<desc>RendererChain</desc>
				<v:textBlock v:margins="rect(4,4,4,4)" v:tabSpace="42.5197"/>
				<v:textRect cx="212.598" cy="584.074" width="425.2" height="22.4037"/>
				<path d="M425.2 595.28 L0 595.28 A22.4037 22.4037 0 0 1 22.4 572.87 L402.79 572.87 A22.4037 22.4037 0 0 1 425.2 595.28
							 Z" class="st14"/>
				<text x="171.91" y="587.67" class="st7" v:langID="1031"><v:paragraph v:horizAlign="1"/><v:tabList/>RendererChain</text>			</g>
		</g>
		<g id="shape24-82" v:mID="24" v:groupContext="shape" v:layerMember="0" transform="translate(184.252,-255.827)">
			<title>Flussdiagrammelement</title>
			<desc>Raw list data from database</desc>
			<v:custProps>
				<v:cp v:nameU="Cost" v:lbl="Kosten" v:type="7" v:format="@" v:langID="1031"/>
				<v:cp v:nameU="Duration" v:lbl="Dauer" v:type="2" v:langID="1031"/>
				<v:cp v:nameU="Resources" v:lbl="Ressourcen" v:langID="1031"/>
			</v:custProps>
			<v:userDefs>
				<v:ud v:nameU="visVersion" v:val="VT0(12):26"/>
			</v:userDefs>
			<v:textBlock v:margins="rect(2,2,2,2)" v:tabSpace="42.5197"/>
			<v:textRect cx="70.8661" cy="581.811" width="141.74" height="26.9291"/>
			<path d="M0 595.28 L141.73 595.28 L141.73 568.35 L0 568.35 L0 595.28 Z" class="st15"/>
			<text x="17.96" y="584.21" class="st16" v:langID="1031"><v:paragraph v:horizAlign="1"/><v:tabList/>Raw list data from database</text>		</g>
		<g id="shape25-85" v:mID="25" v:groupContext="shape" v:layerMember="0" transform="translate(425.197,-255.118)">
			<title>Flussdiagrammelement.25</title>
			<desc>Data mapped to list columns</desc>
			<v:custProps>
				<v:cp v:nameU="Cost" v:lbl="Kosten" v:type="7" v:format="@" v:langID="1031"/>
				<v:cp v:nameU="Duration" v:lbl="Dauer" v:type="2" v:langID="1031"/>
				<v:cp v:nameU="Resources" v:lbl="Ressourcen" v:langID="1031"/>
			</v:custProps>
			<v:userDefs>
				<v:ud v:nameU="visVersion" v:val="VT0(12):26"/>
			</v:userDefs>
			<v:textBlock v:margins="rect(2,2,2,2)" v:tabSpace="42.5197"/>
			<v:textRect cx="70.8661" cy="581.811" width="141.74" height="26.9291"/>
			<path d="M0 595.28 L141.73 595.28 L141.73 568.35 L0 568.35 L0 595.28 Z" class="st15"/>
			<text x="16.41" y="584.21" class="st16" v:langID="1031"><v:paragraph v:horizAlign="1"/><v:tabList/>Data mapped to list columns  </text>		</g>
		<g id="shape26-88" v:mID="26" v:groupContext="shape" v:layerMember="0" transform="translate(634.961,-330.832)">
			<title>Dokument</title>
			<v:custProps>
				<v:cp v:nameU="Cost" v:lbl="Kosten" v:type="7" v:format="@" v:langID="1031"/>
				<v:cp v:nameU="Duration" v:lbl="Dauer" v:type="2" v:langID="1031"/>
				<v:cp v:nameU="Resources" v:lbl="Ressourcen" v:langID="1031"/>
			</v:custProps>
			<v:userDefs>
				<v:ud v:nameU="visVersion" v:val="VT0(12):26"/>
			</v:userDefs>
			<path d="M0 589.13 L0 543.06 L73.7 543.06 L73.7 589.13 A30.7087 30.7087 -180 0 0 36.85 589.13 A30.7087 30.7087 0 0 1
						 -0 589.13 Z" class="st17"/>
		</g>
		<g id="shape27-90" v:mID="27" v:groupContext="shape" v:layerMember="1" transform="translate(566.929,-349.853)">
			<title>Dynamischer Verbinder.27</title>
			<v:userDefs>
				<v:ud v:nameU="visVersion" v:val="VT0(12):26"/>
			</v:userDefs>
			<path d="M0 588.19 L62.51 588.19" class="st12"/>
		</g>
	</g>
</svg>
