<?xml version="1.0" encoding="UTF-8" standalone="no"?>
<!-- Created with Inkscape (http://www.inkscape.org/) -->

<svg
   xmlns:dc="http://purl.org/dc/elements/1.1/"
   xmlns:cc="http://creativecommons.org/ns#"
   xmlns:rdf="http://www.w3.org/1999/02/22-rdf-syntax-ns#"
   xmlns:svg="http://www.w3.org/2000/svg"
   xmlns="http://www.w3.org/2000/svg"
   xmlns:sodipodi="http://sodipodi.sourceforge.net/DTD/sodipodi-0.dtd"
   xmlns:inkscape="http://www.inkscape.org/namespaces/inkscape"
   width="604.888"
   height="132.80846"
   id="svg2963"
   version="1.1"
   inkscape:version="0.47 r22583"
   sodipodi:docname="drawing.svg">
  <defs
     id="defs2965">
    <inkscape:perspective
       sodipodi:type="inkscape:persp3d"
       inkscape:vp_x="0 : 526.18109 : 1"
       inkscape:vp_y="0 : 1000 : 0"
       inkscape:vp_z="744.09448 : 526.18109 : 1"
       inkscape:persp3d-origin="372.04724 : 350.78739 : 1"
       id="perspective2971" />
    <inkscape:perspective
       id="perspective2948"
       inkscape:persp3d-origin="0.5 : 0.33333333 : 1"
       inkscape:vp_z="1 : 0.5 : 1"
       inkscape:vp_y="0 : 1000 : 0"
       inkscape:vp_x="0 : 0.5 : 1"
       sodipodi:type="inkscape:persp3d" />
  </defs>
  <sodipodi:namedview
     id="base"
     pagecolor="#ffffff"
     bordercolor="#666666"
     borderopacity="1.0"
     inkscape:pageopacity="0.0"
     inkscape:pageshadow="2"
     inkscape:zoom="0.35"
     inkscape:cx="206.64484"
     inkscape:cy="-354.28607"
     inkscape:document-units="px"
     inkscape:current-layer="layer1"
     showgrid="false"
     inkscape:window-width="1046"
     inkscape:window-height="704"
     inkscape:window-x="262"
     inkscape:window-y="160"
     inkscape:window-maximized="0"
     width="610px" />
  <metadata
     id="metadata2968">
    <rdf:RDF>
      <cc:Work
         rdf:about="">
        <dc:format>image/svg+xml</dc:format>
        <dc:type
           rdf:resource="http://purl.org/dc/dcmitype/StillImage" />
        <dc:title></dc:title>
      </cc:Work>
    </rdf:RDF>
  </metadata>
  <g
     inkscape:label="Layer 1"
     inkscape:groupmode="layer"
     id="layer1"
     transform="translate(-17.556001,-45.267633)">
    <g
       id="Logo_plus_guides"
       transform="matrix(1.8618355,0,0,1.8618355,-469.49458,-449.93034)">
      <g
         id="g2912">
        <path
           d="m 379.396,316.465 c -2.809,0 -5.283,-0.56 -6.984,-0.967 v 9.508 c 0,0.644 -0.274,0.966 -0.914,1.074 l -5.213,0.968 h -0.216 c -0.483,0 -0.871,-0.321 -0.871,-0.863 v -33.259 c 0,-2.792 0.975,-3.6 3.398,-4.353 3.227,-1.128 7.36,-1.72 10.96,-1.72 10.376,0 11.718,6.287 11.718,14.838 10e-4,8.489 -1.875,14.774 -11.878,14.774 z m -1.34,-24.556 c -2.476,0 -5.644,0.858 -5.644,0.858 v 18.114 c 0,0 2.204,0.639 5.106,0.639 4.888,0 6.397,-1.823 6.397,-9.992 0,-8.711 -1.778,-9.619 -5.859,-9.619 z"
           id="path2914" />
        <path
           d="m 409.641,316.465 c -8.709,0 -12.624,-2.846 -12.624,-10.428 v -17.141 c 0,-0.647 0.316,-0.967 0.913,-1.07 l 5.263,-0.973 h 0.221 c 0.531,0 0.801,0.324 0.801,0.862 v 18.703 c 0,3.439 1.233,5.159 5.426,5.159 4.729,0 5.321,-2.313 5.321,-5.216 V 288.95 c 0,-0.702 0.27,-1.021 0.914,-1.124 l 5.265,-0.918 c 0.054,-0.055 0.161,-0.055 0.216,-0.055 0.485,0 0.805,0.324 0.805,0.914 v 18.22 c 0,6.659 -3.058,10.478 -12.521,10.478 z"
           id="path2916" />
        <path
           d="m 453.504,315.764 h -5.535 c -0.481,0 -0.866,-0.318 -0.866,-0.802 V 295.99 c 0,-3.115 -1.181,-4.186 -4.028,-4.186 -3.223,0 -6.72,0.908 -6.72,0.908 v 22.25 c 0,0.483 -0.321,0.802 -0.803,0.802 h -5.483 c -0.537,0 -0.913,-0.318 -0.913,-0.802 v -23.158 c 0,-2.048 1.021,-2.748 4.036,-3.556 2.732,-0.751 7.252,-1.396 10.686,-1.396 6.721,0 10.428,1.72 10.428,8.173 v 19.936 c -10e-4,0.484 -0.322,0.803 -0.802,0.803 z"
           id="path2918" />
        <path
           d="m 487.147,315.284 c 0,0.214 -0.22,0.479 -0.536,0.479 h -7.209 c -0.268,0 -0.533,0 -0.803,-0.318 l -8.332,-11.338 h -1.822 v 10.854 c 0,0.483 -0.273,0.802 -0.81,0.802 h -5.538 c -0.48,0 -0.857,-0.318 -0.857,-0.802 v -37.567 c 0,-0.644 0.262,-0.964 0.908,-1.129 l 5.272,-0.903 h 0.215 c 0.481,0 0.81,0.312 0.81,0.903 v 23.006 h 1.822 l 8.496,-11.342 c 0.217,-0.324 0.43,-0.375 0.695,-0.375 l 6.558,0.162 c 0.376,0 0.54,0.267 0.54,0.481 0,0.113 -0.057,0.164 -0.118,0.268 l -10.151,12.796 10.753,13.749 c 0.05,0.054 0.107,0.166 0.107,0.274 z"
           id="path2920" />
        <path
           d="m 507.52,314.423 c 0,0.375 -0.222,0.697 -0.649,0.804 -0.913,0.271 -3.283,1.021 -6.72,1.021 -6.123,0 -9.189,-2.363 -9.189,-8.435 v -27.679 c 0,-0.639 0.318,-0.966 0.917,-1.127 l 5.266,-0.97 h 0.266 c 0.482,0 0.753,0.27 0.753,0.861 v 8.655 h 7.686 c 0.48,0 0.803,0.32 0.803,0.807 v 3.655 c 0,0.483 -0.322,0.751 -0.803,0.751 h -7.686 v 14.883 c 0,2.365 0.974,3.331 3.765,3.331 1.61,0 3.17,-0.269 4.085,-0.479 h 0.215 c 0.32,0 0.533,0.211 0.593,0.587 l 0.64,3.061 c -0.003,0.108 0.058,0.166 0.058,0.274 z"
           id="path2922" />
        <path
           d="m 522.96,314.854 c 0,0.535 -0.425,0.91 -1.066,0.91 h -6.399 c -0.647,0 -1.076,-0.375 -1.076,-0.91 v -5.157 c 0,-0.485 0.429,-0.913 1.076,-0.913 h 6.399 c 0.642,0 1.066,0.428 1.066,0.913 v 5.157 z"
           id="path2924" />
        <path
           d="m 551.035,315.284 c -2.363,0.641 -5.372,1.181 -8.971,1.181 -10.538,0 -13.87,-3.706 -13.87,-14.666 0,-9.515 2.471,-14.946 11.931,-14.946 3.716,0 6.023,0.783 6.938,1.052 v -10.51 c 0,-0.644 0.27,-1.023 0.918,-1.129 l 5.213,-0.903 h 0.265 c 0.481,0 0.803,0.312 0.803,0.851 v 34.876 c -10e-4,1.556 -0.16,3.333 -3.227,4.194 z m -3.972,-22.838 c 0,0 -2.634,-0.594 -5.157,-0.594 -4.571,0 -6.343,1.074 -6.343,9.623 0,9.027 2.039,9.996 6.561,9.996 2.629,0 4.939,-0.647 4.939,-0.647 v -18.378 z"
           id="path2926" />
        <path
           d="m 586.484,303.729 c 0,0.597 -0.301,1.24 -1.107,1.24 h -18.008 c 0,2.469 0.698,3.814 2.143,4.94 1.403,1.131 3.448,1.61 6.343,1.61 3.331,0 5.864,-0.807 7.53,-1.287 0.107,-0.053 0.166,-0.053 0.263,-0.053 0.327,0 0.597,0.213 0.755,0.751 l 0.699,2.74 c 0,0.053 0.057,0.161 0.057,0.266 0,0.429 -0.268,0.647 -0.646,0.808 -1.828,0.754 -5.48,1.721 -9.732,1.721 -10.523,0 -14.671,-4.139 -14.671,-14.666 0,-10.105 2.804,-14.946 13.276,-14.946 5.434,0 8.764,1.396 10.701,3.978 1.822,2.418 2.398,5.859 2.398,10.322 v 2.576 z m -7.557,-8.004 c -0.702,-2.958 -2.317,-3.921 -5.484,-3.921 -3.604,0 -5.108,1.071 -5.699,3.757 -0.374,1.505 -0.374,3.063 -0.429,4.839 l 12.041,-0.055 c -10e-4,-1.72 -0.058,-3.17 -0.429,-4.62 z"
           id="path2928" />
      </g>
      <path
         d="m 290.848,279.143 c 0.468,1.939 1.404,3.008 3.543,3.008 h 12.502 c 20.857,0 24.801,4.546 24.801,19.922 0,15.243 -5.883,19.053 -24.801,19.053 h -8.023 l 2.875,13.17 c 0.401,1.938 1.337,3.009 3.476,3.009 h 1.471 c 23.799,0 44.123,-3.944 44.123,-35.231 0,-30.752 -16.914,-36.101 -47.131,-36.101 h -15.577 l 2.741,13.17 z m -13.036,-13.17 c 2.14,0 3.076,1.07 3.477,3.008 l 4.947,24.134 H 270.02 c -2.139,0 -3.075,-1.069 -3.543,-3.008 l -4.88,-24.134 h 16.215 z"
         id="path2930"
         style="fill:#cf003d" />
    </g>
  </g>
</svg>
